<?xml version="1.0" encoding="utf-8"?>
<!-- Generator: Adobe Illustrator 28.2.0, SVG Export Plug-In . SVG Version: 6.00 Build 0)  -->
<svg version="1.1" id="Layer_1" xmlns="http://www.w3.org/2000/svg" xmlns:xlink="http://www.w3.org/1999/xlink" x="0px" y="0px"
	 viewBox="0 0 4600 1728" style="enable-background:new 0 0 4600 1728;" xml:space="preserve">
<style type="text/css">
	.st0{fill:#3FB2FF;}
	.st1{fill:#FFE7CA;}
</style>
<path class="st0" d="M4266.65,1608.6h-343.31c-15.66,0-28.35-12.69-28.35-28.35v-310.03c0-15.66,12.69-28.35,28.35-28.35h343.31
	c15.66,0,28.35,12.69,28.35,28.35v310.03C4295,1595.91,4282.31,1608.6,4266.65,1608.6z"/>
<path class="st0" d="M3817.9,1608.6h-343.3c-15.66,0-28.35-12.69-28.35-28.35v-310.03c0-15.66,12.69-28.35,28.35-28.35h343.31
	c15.66,0,28.35,12.69,28.35,28.35v310.03C3846.25,1595.91,3833.56,1608.6,3817.9,1608.6z"/>
<path class="st0" d="M3369.15,1608.6h-343.31c-15.66,0-28.35-12.69-28.35-28.35v-310.03c0-15.66,12.69-28.35,28.35-28.35h343.31
	c15.66,0,28.35,12.69,28.35,28.35v310.03C3397.5,1595.91,3384.81,1608.6,3369.15,1608.6z"/>
<path class="st0" d="M2920.4,1608.6h-343.3c-15.66,0-28.35-12.69-28.35-28.35v-310.03c0-15.66,12.69-28.35,28.35-28.35h343.31
	c15.66,0,28.35,12.69,28.35,28.35v310.03C2948.75,1595.91,2936.06,1608.6,2920.4,1608.6z"/>
<path class="st0" d="M2471.65,1608.6h-343.31c-15.66,0-28.35-12.69-28.35-28.35v-310.03c0-15.66,12.69-28.35,28.35-28.35h343.31
	c15.66,0,28.35,12.69,28.35,28.35v310.03C2500,1595.91,2487.31,1608.6,2471.65,1608.6z"/>
<path class="st0" d="M2022.9,1608.6h-343.3c-15.66,0-28.35-12.69-28.35-28.35v-310.03c0-15.66,12.69-28.35,28.35-28.35h343.31
	c15.66,0,28.35,12.69,28.35,28.35v310.03C2051.25,1595.91,2038.56,1608.6,2022.9,1608.6z"/>
<path class="st0" d="M1574.15,1608.6h-343.31c-15.66,0-28.35-12.69-28.35-28.35v-310.03c0-15.66,12.69-28.35,28.35-28.35h343.31
	c15.66,0,28.35,12.69,28.35,28.35v310.03C1602.5,1595.91,1589.81,1608.6,1574.15,1608.6z"/>
<path class="st0" d="M676.65,1608.6h-343.3c-15.66,0-28.35-12.69-28.35-28.35v-310.03c0-15.66,12.69-28.35,28.35-28.35h343.31
	c15.66,0,28.35,12.69,28.35,28.35v310.03C705,1595.91,692.31,1608.6,676.65,1608.6z"/>
<path class="st0" d="M1125.4,1608.6H782.1c-15.66,0-28.35-12.69-28.35-28.35v-310.03c0-15.66,12.69-28.35,28.35-28.35h343.31
	c15.66,0,28.35,12.69,28.35,28.35v310.03C1153.75,1595.91,1141.06,1608.6,1125.4,1608.6z"/>
<g>
	<g>
		<path class="st1" d="M4152,1349.59c1.12,1.12,1.68,2.56,1.68,4.32v71.04c0,15.84-5.52,29-16.56,39.48s-26.56,17.48-46.56,21
			l-61.44,12.96c-1.76,0.32-3.32-0.08-4.68-1.2c-1.36-1.12-2.04-2.56-2.04-4.32v-20.88c0-1.6,0.52-3,1.56-4.2s2.36-1.96,3.96-2.28
			l26.64-6.48l-28.32-101.52c-0.8-2.72-1.2-4.32-1.2-4.8c0-1.28,0.48-2.4,1.44-3.36s2.08-1.44,3.36-1.44h31.2
			c1.44,0,2.64,0.36,3.6,1.08c0.96,0.72,1.6,1.56,1.92,2.52l24,98.16c8.64-3.36,14.56-7.88,17.76-13.56c3.2-5.68,4.8-13.4,4.8-23.16
			v-59.04c0-1.76,0.56-3.2,1.68-4.32s2.56-1.68,4.32-1.68h28.56C4149.44,1347.91,4150.88,1348.47,4152,1349.59z"/>
	</g>
	<g>
		<path class="st1" d="M3616.73,1397.4c0.32,6.56,2.24,10.4,5.76,11.52l6.72,2.4c1.28,0.48,2.28,1.4,3,2.76s1.08,2.84,1.08,4.44
			l0.24,12.24c0,2.4-1.08,4.28-3.24,5.64s-4.76,1.88-7.8,1.56l-9.84-1.44c-8.32-1.28-15.2-5.72-20.64-13.32s-8.16-17.16-8.16-28.68
			v-33.84c0.32-1.76,1-3.2,2.04-4.32s2.36-1.68,3.96-1.68h48.48c20.96,0,36.6,5.4,46.92,16.2s15.96,25.96,16.92,45.48
			c0.16,1.6,0.24,3.84,0.24,6.72c0,21.6-5.12,38.44-15.36,50.52c-10.24,12.08-26.48,18.12-48.72,18.12h-45.6
			c-1.76,0-3.24-0.56-4.44-1.68s-1.8-2.56-1.8-4.32v-22.08c0-1.76,0.6-3.24,1.8-4.44s2.68-1.8,4.44-1.8h44.4
			c8.16,0,14.84-2.36,20.04-7.08s8.04-11.4,8.52-20.04c0.16-1.6,0.24-4,0.24-7.2c0-3.04-0.08-5.36-0.24-6.96
			c-0.32-8.64-3.08-15.32-8.28-20.04c-5.2-4.72-11.96-7.08-20.28-7.08h-20.4L3616.73,1397.4L3616.73,1397.4z"/>
	</g>
	<g>
		<path class="st1" d="M3166.66,1384.68c0,8.48,1.92,13.36,5.76,14.64l6.72,2.16c2.72,1.28,4.08,3.76,4.08,7.44l0.24,13.92
			c0,1.76-0.92,3.24-2.76,4.44s-3.72,1.64-5.64,1.32l-12.48-1.68c-8.32-1.28-15.2-5.88-20.64-13.8s-8.16-18.36-8.16-31.32v-36
			c0-1.76,0.56-3.2,1.68-4.32c1.12-1.12,2.56-1.68,4.32-1.68h47.28c20.64,0,36.08,5.44,46.32,16.32s15.68,26,16.32,45.36l0.24,99.12
			c0,1.76-0.56,3.2-1.68,4.32c-1.12,1.12-2.56,1.68-4.32,1.68h-27.12c-1.6,0-3-0.56-4.2-1.68c-1.2-1.12-1.8-2.56-1.8-4.32v-99.36
			c-0.32-8.96-2.76-15.8-7.32-20.52s-11.4-7.08-20.52-7.08l-16.32,0.24L3166.66,1384.68L3166.66,1384.68z"/>
	</g>
	<g>
		<path class="st1" d="M2796.03,1410.96c-4.8,8.72-11.84,15.96-21.12,21.72l18.72,25.68c0.96,1.28,1.72,2.48,2.28,3.6
			s0.84,2.56,0.84,4.32v19.44c0,1.6-0.56,3-1.68,4.2c-1.12,1.2-2.56,1.8-4.32,1.8h-97.44c-1.6,0-3-0.6-4.2-1.8
			c-1.2-1.2-1.8-2.6-1.8-4.2v-21.36c0-1.76,0.6-3.2,1.8-4.32s2.6-1.68,4.2-1.68h56.4l-69.84-95.04c-0.96-1.6-1.44-2.88-1.44-3.84
			c0-1.44,0.52-2.6,1.56-3.48s2.28-1.32,3.72-1.32h29.76c3.2,0,5.76,1.44,7.68,4.32l33.6,46.08c7.36-6.24,11.04-16.4,11.04-30.48
			v-13.44c0-1.92,0.6-3.48,1.8-4.68c1.2-1.2,2.68-1.8,4.44-1.8h25.2c1.6,0,3,0.64,4.2,1.92s1.8,2.8,1.8,4.56v20.64
			C2803.23,1392.53,2800.83,1402.25,2796.03,1410.96z"/>
	</g>
	<g>
		<path class="st1" d="M2293.28,1501.56L2234,1348.2c-0.64-1.76-0.96-2.88-0.96-3.36c0-1.28,0.56-2.44,1.68-3.48
			c1.12-1.04,2.32-1.56,3.6-1.56h29.04c2.08,0,3.68,0.48,4.8,1.44s2.08,2.4,2.88,4.32l21.6,56.4c6.56-1.92,11.6-5.4,15.12-10.44
			c3.52-5.04,5.28-11.64,5.28-19.8v-25.44c0-1.92,0.56-3.48,1.68-4.68c1.12-1.2,2.56-1.8,4.32-1.8h25.2c1.6,0,3,0.64,4.2,1.92
			s1.8,2.8,1.8,4.56v27.36c0,15.84-4.12,29-12.36,39.48s-19,18.2-32.28,23.16l24,61.92c0.64,1.44,0.96,2.56,0.96,3.36
			c0,1.44-0.48,2.64-1.44,3.6s-2.16,1.44-3.6,1.44h-28.8C2297.36,1506.6,2294.88,1504.92,2293.28,1501.56z"/>
	</g>
	<g>
		<path class="st1" d="M1840.33,1470.25c-1.28-1.44-1.92-3.04-1.92-4.8v-24.24c0-1.6,0.56-3.12,1.68-4.56
			c1.12-1.44,2.56-2.48,4.32-3.12l7.44-3.12c7.36-2.88,13.2-7.16,17.52-12.84c4.32-5.68,6.48-13.8,6.48-24.36
			c0-10.08-1.8-17.12-5.4-21.12s-10.2-6-19.8-6h-63.84c-1.76,0-3.24-0.6-4.44-1.8c-1.2-1.2-1.8-2.68-1.8-4.44v-22.32
			c0-1.6,0.64-2.96,1.92-4.08s2.72-1.68,4.32-1.68h72.24c20.8,0,35.76,5,44.88,15s13.68,25.08,13.68,45.24c0,20.32-6,36.96-18,49.92
			c-12,12.96-27.04,22-45.12,27.12l-9.84,2.88C1843.05,1472.24,1841.61,1471.68,1840.33,1470.25z M1782.37,1512.96
			c-1.2-1.12-1.8-2.56-1.8-4.32v-115.92c0-1.76,0.6-3.2,1.8-4.32c1.2-1.12,2.68-1.68,4.44-1.68h27.36c1.76,0,3.2,0.56,4.32,1.68
			s1.68,2.56,1.68,4.32v115.92c0,1.76-0.56,3.2-1.68,4.32s-2.56,1.68-4.32,1.68h-27.36
			C1785.05,1514.64,1783.57,1514.08,1782.37,1512.96z"/>
	</g>
	<g>
		<path class="st1" d="M1412.34,1490.04c-1.2-1.12-1.8-2.56-1.8-4.32v-71.04c0-18.24-9.04-27.36-27.12-27.36h-36.48
			c-1.6,0-3-0.6-4.2-1.8c-1.2-1.2-1.8-2.6-1.8-4.2v-20.64c0-1.76,0.6-3.2,1.8-4.32c1.2-1.12,2.6-1.68,4.2-1.68h37.92
			c22.24,0,38.84,4.56,49.8,13.68c10.96,9.12,16.44,24.08,16.44,44.88v72.48c0,1.6-0.56,3-1.68,4.2s-2.56,1.8-4.32,1.8h-28.32
			C1415.02,1491.72,1413.54,1491.17,1412.34,1490.04z"/>
	</g>
	<g>
		<path class="st1" d="M556.24,1368.96c11.12,9.52,16.68,24.36,16.68,44.52v72.24c0,1.6-0.56,3-1.68,4.2s-2.56,1.8-4.32,1.8H538.6
			c-1.76,0-3.24-0.56-4.44-1.68s-1.8-2.56-1.8-4.32v-71.04c0-18.24-9.04-27.36-27.12-27.36h-15.6c-2.56,10.88-3.76,22.64-3.6,35.28
			l1.92,63.12c0,1.76-0.6,3.2-1.8,4.32c-1.2,1.12-2.68,1.68-4.44,1.68l-50.88-0.24c-1.76,0-3.24-0.56-4.44-1.68s-1.8-2.56-1.8-4.32
			v-18.96c0-1.76,0.6-3.2,1.8-4.32c1.2-1.12,2.68-1.68,4.44-1.68h19.44v-37.68c-0.32-13.12,0.88-24.96,3.6-35.52h-14.16
			c-1.76,0-3.24-0.56-4.44-1.68s-1.8-2.56-1.8-4.32v-20.64c0-1.76,0.6-3.2,1.8-4.32c1.2-1.12,2.68-1.68,4.44-1.68h66.96
			C528.6,1354.68,545.12,1359.45,556.24,1368.96z"/>
	</g>
	<g>
		<path class="st1" d="M1027.19,1355.4c1.12,1.12,1.68,2.56,1.68,4.32v62.88c0,14.08-3.2,26.44-9.6,37.08s-15.12,18.84-26.16,24.6
			s-23.28,8.56-36.72,8.4h-23.04c-12.8,0-24-2.48-33.6-7.44s-16.92-11.68-21.96-20.16c-5.04-8.48-7.56-17.84-7.56-28.08v-77.28
			c0-1.76,0.6-3.2,1.8-4.32s2.68-1.68,4.44-1.68h25.2c1.76,0,3.2,0.56,4.32,1.68s1.68,2.56,1.68,4.32l0.24,57.6
			c8.64-0.8,14.72-4.12,18.24-9.96s5.28-14.2,5.28-25.08v-22.08c0-1.92,0.6-3.48,1.8-4.68c1.2-1.2,2.68-1.8,4.44-1.8h24.96
			c1.6,0,3,0.64,4.2,1.92s1.8,2.8,1.8,4.56v22.56c0,18.24-4.72,32.64-14.16,43.2c-9.44,10.56-22.8,16.72-40.08,18.48
			c3.04,5.12,7.08,9.04,12.12,11.76s10.6,4.08,16.68,4.08h5.52c8.16,0,15.52-1.68,22.08-5.04s11.68-8,15.36-13.92
			s5.52-12.56,5.52-19.92v-61.68c0-1.76,0.56-3.2,1.68-4.32s2.56-1.68,4.32-1.68h25.2
			C1024.63,1353.72,1026.07,1354.28,1027.19,1355.4z"/>
	</g>
</g>
<path class="st0" d="M4266.65,497.6h-343.31c-15.66,0-28.35-12.69-28.35-28.35V159.22c0-15.66,12.69-28.35,28.35-28.35h343.31
	c15.66,0,28.35,12.69,28.35,28.35v310.03C4295,484.91,4282.31,497.6,4266.65,497.6z"/>
<path class="st0" d="M3817.9,497.6h-343.3c-15.66,0-28.35-12.69-28.35-28.35V159.22c0-15.66,12.69-28.35,28.35-28.35h343.31
	c15.66,0,28.35,12.69,28.35,28.35v310.03C3846.25,484.91,3833.56,497.6,3817.9,497.6z"/>
<path class="st0" d="M3369.15,497.6h-343.31c-15.66,0-28.35-12.69-28.35-28.35V159.22c0-15.66,12.69-28.35,28.35-28.35h343.31
	c15.66,0,28.35,12.69,28.35,28.35v310.03C3397.5,484.91,3384.81,497.6,3369.15,497.6z"/>
<path class="st0" d="M2920.4,497.6h-343.3c-15.66,0-28.35-12.69-28.35-28.35V159.22c0-15.66,12.69-28.35,28.35-28.35h343.31
	c15.66,0,28.35,12.69,28.35,28.35v310.03C2948.75,484.91,2936.06,497.6,2920.4,497.6z"/>
<path class="st0" d="M2471.65,497.6h-343.31c-15.66,0-28.35-12.69-28.35-28.35V159.22c0-15.66,12.69-28.35,28.35-28.35h343.31
	c15.66,0,28.35,12.69,28.35,28.35v310.03C2500,484.91,2487.31,497.6,2471.65,497.6z"/>
<path class="st0" d="M2022.9,497.6h-343.3c-15.66,0-28.35-12.69-28.35-28.35V159.22c0-15.66,12.69-28.35,28.35-28.35h343.31
	c15.66,0,28.35,12.69,28.35,28.35v310.03C2051.25,484.91,2038.56,497.6,2022.9,497.6z"/>
<path class="st0" d="M1574.15,497.6h-343.31c-15.66,0-28.35-12.69-28.35-28.35V159.22c0-15.66,12.69-28.35,28.35-28.35h343.31
	c15.66,0,28.35,12.69,28.35,28.35v310.03C1602.5,484.91,1589.81,497.6,1574.15,497.6z"/>
<path class="st0" d="M676.65,497.6h-343.3c-15.66,0-28.35-12.69-28.35-28.35V159.22c0-15.66,12.69-28.35,28.35-28.35h343.31
	c15.66,0,28.35,12.69,28.35,28.35v310.03C705,484.91,692.31,497.6,676.65,497.6z"/>
<path class="st0" d="M1125.4,497.6H782.1c-15.66,0-28.35-12.69-28.35-28.35V159.22c0-15.66,12.69-28.35,28.35-28.35h343.31
	c15.66,0,28.35,12.69,28.35,28.35v310.03C1153.75,484.91,1141.06,497.6,1125.4,497.6z"/>
<path class="st0" d="M4266.65,1049.6h-343.31c-15.66,0-28.35-12.69-28.35-28.35V711.22c0-15.66,12.69-28.35,28.35-28.35h343.31
	c15.66,0,28.35,12.69,28.35,28.35v310.03C4295,1036.91,4282.31,1049.6,4266.65,1049.6z"/>
<path class="st0" d="M3817.9,1049.6h-343.3c-15.66,0-28.35-12.69-28.35-28.35V711.22c0-15.66,12.69-28.35,28.35-28.35h343.31
	c15.66,0,28.35,12.69,28.35,28.35v310.03C3846.25,1036.91,3833.56,1049.6,3817.9,1049.6z"/>
<path class="st0" d="M3369.15,1049.6h-343.31c-15.66,0-28.35-12.69-28.35-28.35V711.22c0-15.66,12.69-28.35,28.35-28.35h343.31
	c15.66,0,28.35,12.69,28.35,28.35v310.03C3397.5,1036.91,3384.81,1049.6,3369.15,1049.6z"/>
<path class="st0" d="M2920.4,1049.6h-343.3c-15.66,0-28.35-12.69-28.35-28.35V711.22c0-15.66,12.69-28.35,28.35-28.35h343.31
	c15.66,0,28.35,12.69,28.35,28.35v310.03C2948.75,1036.91,2936.06,1049.6,2920.4,1049.6z"/>
<path class="st0" d="M2471.65,1049.6h-343.31c-15.66,0-28.35-12.69-28.35-28.35V711.22c0-15.66,12.69-28.35,28.35-28.35h343.31
	c15.66,0,28.35,12.69,28.35,28.35v310.03C2500,1036.91,2487.31,1049.6,2471.65,1049.6z"/>
<path class="st0" d="M2022.9,1049.6h-343.3c-15.66,0-28.35-12.69-28.35-28.35V711.22c0-15.66,12.69-28.35,28.35-28.35h343.31
	c15.66,0,28.35,12.69,28.35,28.35v310.03C2051.25,1036.91,2038.56,1049.6,2022.9,1049.6z"/>
<path class="st0" d="M1574.15,1049.6h-343.31c-15.66,0-28.35-12.69-28.35-28.35V711.22c0-15.66,12.69-28.35,28.35-28.35h343.31
	c15.66,0,28.35,12.69,28.35,28.35v310.03C1602.5,1036.91,1589.81,1049.6,1574.15,1049.6z"/>
<path class="st0" d="M676.65,1049.6h-343.3c-15.66,0-28.35-12.69-28.35-28.35V711.22c0-15.66,12.69-28.35,28.35-28.35h343.31
	c15.66,0,28.35,12.69,28.35,28.35v310.03C705,1036.91,692.31,1049.6,676.65,1049.6z"/>
<path class="st0" d="M1125.4,1049.6H782.1c-15.66,0-28.35-12.69-28.35-28.35V711.22c0-15.66,12.69-28.35,28.35-28.35h343.31
	c15.66,0,28.35,12.69,28.35,28.35v310.03C1153.75,1036.91,1141.06,1049.6,1125.4,1049.6z"/>
<g>
	<g>
		<path class="st1" d="M4160.64,364.55c0,1.28-0.48,2.44-1.44,3.48s-2.16,1.56-3.6,1.56h-29.52c-3.04,0-5.2-0.76-6.48-2.28
			s-2-2.36-2.16-2.52l-42-60.72c-4.16,3.84-6.88,8.24-8.16,13.2s-1.92,10.24-1.92,15.84v30c0,1.92-0.6,3.48-1.8,4.68
			s-2.68,1.8-4.44,1.8h-23.52c-1.6,0-3-0.64-4.2-1.92c-1.2-1.28-1.8-2.8-1.8-4.56v-29.76c0-13.6,1.84-24.64,5.52-33.12
			s10.64-16.48,20.88-24l-24.48-35.28c-0.8-0.96-1.2-2.08-1.2-3.36c0-1.28,0.52-2.44,1.56-3.48s2.2-1.56,3.48-1.56h28.32
			c2.24,0,3.96,0.48,5.16,1.44s2.36,2.24,3.48,3.84l38.64,54.72c4.48-3.2,7.32-6.72,8.52-10.56s1.8-8.4,1.8-13.68v-29.28
			c0-1.92,0.56-3.48,1.68-4.68s2.56-1.8,4.32-1.8h25.2c1.76,0,3.24,0.64,4.44,1.92c1.2,1.28,1.8,2.8,1.8,4.56v30.24
			c0,10.24-2.04,19.56-6.12,27.96s-11.48,15.96-22.2,22.68l29.28,41.28C4160.32,362.15,4160.64,363.27,4160.64,364.55z"/>
	</g>
	<g>
		<path class="st1" d="M3588.41,367.79c-1.2-1.2-1.8-2.6-1.8-4.2v-20.64c0-1.76,0.6-3.2,1.8-4.32s2.6-1.68,4.2-1.68h60.24v-44.4
			c0-18.08-9.04-27.12-27.12-27.12h-30.72c-1.76,0-3.2-0.6-4.32-1.8s-1.68-2.68-1.68-4.44v-20.64c0-1.76,0.6-3.2,1.8-4.32
			s2.6-1.68,4.2-1.68h31.92c22.4,0,39.32,4.72,50.76,14.16s17.16,24.72,17.16,45.84v44.4h8.4c1.76,0,3.2,0.56,4.32,1.68
			s1.68,2.56,1.68,4.32v20.64c0,1.6-0.56,3-1.68,4.2c-1.12,1.2-2.56,1.8-4.32,1.8h-110.64
			C3591.01,369.59,3589.61,368.99,3588.41,367.79z"/>
	</g>
	<g>
		<path class="st1" d="M3247.9,367.79c-1.28,1.2-2.8,1.8-4.56,1.8h-30c-1.6,0-2.96-0.56-4.08-1.68s-1.76-2.56-1.92-4.32l-3.6-17.76
			c-4,4.8-8.64,8.72-13.92,11.76c-6.4,3.84-12.2,6.84-17.4,9s-10.6,3.8-16.2,4.92l-1.68,0.24c-2.72,0-4.08-1.28-4.08-3.84v-25.92
			c0-2.72,1.68-4.72,5.04-6c1.12-0.48,4.76-1.64,10.92-3.48c6.16-1.84,11.16-3.72,15-5.64c6.24-3.2,11.52-7.52,15.84-12.96
			l-4.56-22.32c-1.92-9.6-4.4-16.4-7.44-20.4s-8-6-14.88-6h-8.4c-1.6,0-3-0.6-4.2-1.8s-1.8-2.6-1.8-4.2v-22.08
			c0-1.76,0.56-3.24,1.68-4.44c1.12-1.2,2.56-1.8,4.32-1.8h9.12c13.6,0,24.52,2.04,32.76,6.12s14.76,10.36,19.56,18.84
			c4.8,8.48,8.64,20,11.52,34.56l14.4,73.2C3249.66,365.19,3249.18,366.59,3247.9,367.79z"/>
	</g>
	<g>
		<path class="st1" d="M2806.35,234.23c1.12,1.12,1.68,2.56,1.68,4.32v20.64c0,1.6-0.56,3-1.68,4.2c-1.12,1.2-2.56,1.8-4.32,1.8
			h-11.04c-1.92,3.04-3.4,7.12-4.44,12.24s-1.56,10.8-1.56,17.04v69.84c0,1.44-0.76,2.68-2.28,3.72s-3.08,1.56-4.68,1.56h-28.08
			c-1.6,0-2.88-0.48-3.84-1.44c-0.96-0.96-1.44-2.24-1.44-3.84v-72.48c0-12.96,1.6-21.84,4.8-26.64h-54.72c-1.6,0-3-0.6-4.2-1.8
			s-1.8-2.6-1.8-4.2v-20.64c0-1.76,0.6-3.2,1.8-4.32s2.6-1.68,4.2-1.68h107.28C2803.79,232.55,2805.23,233.11,2806.35,234.23z"/>
	</g>
	<g>
		<path class="st1" d="M2326.16,367.91c-1.12-1.12-1.68-2.56-1.68-4.32v-71.04c0-18.24-9.04-27.36-27.12-27.36h-54.72
			c-1.76,0-3.24-0.56-4.44-1.68s-1.8-2.56-1.8-4.32v-20.64c0-1.76,0.6-3.2,1.8-4.32s2.68-1.68,4.44-1.68h55.92
			c22.08,0,38.68,4.88,49.8,14.64s16.68,24.96,16.68,45.6v70.8c0,1.76-0.6,3.2-1.8,4.32s-2.68,1.68-4.44,1.68h-28.32
			C2328.72,369.59,2327.28,369.03,2326.16,367.91z M2238.2,367.91c-1.2-1.12-1.8-2.56-1.8-4.32v-70.08c0-1.76,0.6-3.2,1.8-4.32
			s2.68-1.68,4.44-1.68h28.32c1.76,0,3.2,0.56,4.32,1.68s1.68,2.56,1.68,4.32v70.08c0,1.6-0.56,3-1.68,4.2
			c-1.12,1.2-2.56,1.8-4.32,1.8h-28.32C2240.88,369.59,2239.4,369.03,2238.2,367.91z"/>
	</g>
	<g>
		<path class="st1" d="M1831.93,367.91c-1.2-1.12-1.8-2.56-1.8-4.32V238.55c0-1.76,0.6-3.2,1.8-4.32c1.2-1.12,2.68-1.68,4.44-1.68
			h30c1.76,0,3.2,0.56,4.32,1.68s1.68,2.56,1.68,4.32v125.04c0,1.6-0.56,3-1.68,4.2s-2.56,1.8-4.32,1.8h-30
			C1834.61,369.59,1833.13,369.03,1831.93,367.91z"/>
	</g>
	<g>
		<path class="st1" d="M1442.1,234.23c1.2,1.12,1.8,2.56,1.8,4.32v20.64c0,1.6-0.56,3-1.68,4.2s-2.64,1.8-4.56,1.8h-11.04
			c-1.92,3.04-3.4,7.12-4.44,12.24c-1.04,5.12-1.56,10.8-1.56,17.04v69.84c0,1.44-0.72,2.68-2.16,3.72
			c-1.44,1.04-2.96,1.56-4.56,1.56h-28.08c-1.6,0-2.88-0.48-3.84-1.44s-1.44-2.24-1.44-3.84v-72.48c0-12.96,1.6-21.84,4.8-26.64h-18
			c-1.6,0-3-0.6-4.2-1.8s-1.8-2.6-1.8-4.2v-20.64c0-1.76,0.6-3.2,1.8-4.32c1.2-1.12,2.6-1.68,4.2-1.68h70.32
			C1439.42,232.55,1440.9,233.11,1442.1,234.23z"/>
	</g>
	<g>
		<path class="st1" d="M456.76,356.39c-11.12-10.4-16.68-25.12-16.68-44.16v-73.68c0-1.76,0.6-3.2,1.8-4.32
			c1.2-1.12,2.6-1.68,4.2-1.68h24.96c1.76,0,3.24,0.56,4.44,1.68s1.8,2.56,1.8,4.32v72.48c0,8.96,2.6,15.64,7.8,20.04
			c5.2,4.4,12.44,6.6,21.72,6.6c17.92,0,26.96-8.56,27.12-25.68c0.16-1.6,0.2-3.76,0.12-6.48s-0.12-4.8-0.12-6.24v-5.28
			c-0.16-9.12-1.68-16.12-4.56-21s-7.04-7.32-12.48-7.32c-2.24,0-4.6,0.32-7.08,0.96s-4.52,1.44-6.12,2.4
			c-0.96,0.32-1.68,0.48-2.16,0.48c-1.44,0-2.68-0.52-3.72-1.56s-1.56-2.36-1.56-3.96v-18.96c0-4.16,1.52-7.12,4.56-8.88
			c4.96-3.04,12.64-4.56,23.04-4.56c17.6,0,30.2,4.6,37.8,13.8s11.56,23.4,11.88,42.6v17.52v7.68c-1.76,39.2-24,58.8-66.72,58.8
			C484.56,371.99,467.88,366.79,456.76,356.39z"/>
	</g>
	<g>
		<path class="st1" d="M891.47,367.91c-1.2-1.12-1.8-2.56-1.8-4.32V238.55c0-1.76,0.6-3.2,1.8-4.32s2.68-1.68,4.44-1.68h56.64
			c22.72,0,39.48,4.68,50.28,14.04s16.2,24.76,16.2,46.2v70.8c0,1.6-0.56,3-1.68,4.2s-2.56,1.8-4.32,1.8h-28.32
			c-1.76,0-3.24-0.56-4.44-1.68s-1.8-2.56-1.8-4.32v-71.04c0-18.24-9.04-27.36-27.12-27.36h-21.12v98.4c0,1.6-0.56,3-1.68,4.2
			s-2.56,1.8-4.32,1.8h-28.32C894.15,369.59,892.67,369.03,891.47,367.91z"/>
	</g>
</g>
<g>
	<g>
		<path class="st1" d="M4075.68,905.81c-1.2-1.12-1.8-2.56-1.8-4.32v-68.16c0-1.76,0.6-3.2,1.8-4.32s2.68-1.68,4.44-1.68h30
			c1.76,0,3.2,0.56,4.32,1.68c1.12,1.12,1.68,2.56,1.68,4.32v68.16c0,1.6-0.56,3-1.68,4.2s-2.56,1.8-4.32,1.8h-30
			C4078.36,907.49,4076.88,906.93,4075.68,905.81z"/>
	</g>
	<g>
		<path class="st1" d="M3590.45,934.25c-1.2-1.12-1.8-2.56-1.8-4.32v-22.08c0-1.76,0.6-3.24,1.8-4.44s2.68-1.8,4.44-1.8h34.8
			c18.24,0,27.84-9.04,28.8-27.12c0.16-1.92,0.24-4.32,0.24-7.2c0-2.72-0.08-5.04-0.24-6.96c-0.96-18.08-10.56-27.12-28.8-27.12
			h-34.8c-1.76,0-3.24-0.6-4.44-1.8c-1.2-1.2-1.8-2.68-1.8-4.44v-22.08c0-1.76,0.6-3.2,1.8-4.32s2.68-1.68,4.44-1.68h36
			c42.4,0,64.56,20.56,66.48,61.68c0.16,1.76,0.24,4,0.24,6.72c0,21.76-5.24,38.64-15.72,50.64s-27.48,18-51,18h-36
			C3593.13,935.93,3591.65,935.37,3590.45,934.25z"/>
	</g>
	<g>
		<path class="st1" d="M3178.42,816.65h-38.16c-1.6,0-3-0.6-4.2-1.8c-1.2-1.2-1.8-2.6-1.8-4.2v-20.64c0-1.76,0.6-3.2,1.8-4.32
			s2.6-1.68,4.2-1.68h39.6c22.4,0,39.04,4.52,49.92,13.56s16.32,24.04,16.32,45v102.24c0,1.76-0.56,3.2-1.68,4.32
			c-1.12,1.12-2.56,1.68-4.32,1.68h-28.32c-1.76,0-3.24-0.56-4.44-1.68s-1.8-2.56-1.8-4.32v-100.8
			C3205.54,825.77,3196.5,816.65,3178.42,816.65z"/>
	</g>
	<g>
		<path class="st1" d="M2785.47,828.97c9.12,10,13.68,25.08,13.68,45.24c0,20.32-6,36.96-18,49.92c-12,12.96-27.04,22-45.12,27.12
			l-9.84,2.88c-1.6,0.32-3.08-0.24-4.44-1.68c-1.36-1.44-2.04-3.04-2.04-4.8v-24.24c0-1.6,0.56-3.08,1.68-4.44
			c1.12-1.36,2.56-2.44,4.32-3.24l7.68-3.12c7.36-2.88,13.16-7.16,17.4-12.84c4.24-5.68,6.36-13.8,6.36-24.36
			c0-10.08-1.76-17.12-5.28-21.12s-10.08-6-19.68-6h-5.52h-0.72l-32.16-0.24c-1.76,0-3.2-0.56-4.32-1.68s-1.68-2.56-1.68-4.32
			v-55.44c0-1.76,0.6-3.2,1.8-4.32s2.6-1.68,4.2-1.68h25.92c1.76,0,3.2,0.56,4.32,1.68s1.68,2.56,1.68,4.32v27.36h14.88
			C2761.39,813.97,2776.35,818.97,2785.47,828.97z"/>
	</g>
	<g>
		<path class="st1" d="M2348.72,813.53c10.24,9.76,15.36,24.4,15.36,43.92v72.48c0,1.6-0.56,3-1.68,4.2c-1.12,1.2-2.56,1.8-4.32,1.8
			h-65.52c-1.6,0-3-0.6-4.2-1.8c-1.2-1.2-1.8-2.6-1.8-4.2v-20.64c0-1.76,0.6-3.2,1.8-4.32s2.6-1.68,4.2-1.68h30.96v-43.92
			c0-8.32-2-14.8-6-19.44c-4-4.64-9.2-6.96-15.6-6.96h-18.72l-20.4,96.72c-0.16,1.76-0.8,3.24-1.92,4.44
			c-1.12,1.2-2.56,1.8-4.32,1.8h-27.6c-1.76,0-3.24-0.6-4.44-1.8c-1.2-1.2-1.64-2.68-1.32-4.44l23.52-96.48h-15.84
			c-1.76,0-3.2-0.6-4.32-1.8c-1.12-1.2-1.68-2.68-1.68-4.44v-22.08c0-1.76,0.6-3.2,1.8-4.32s2.6-1.68,4.2-1.68h77.04
			C2324.88,798.89,2338.48,803.77,2348.72,813.53z"/>
	</g>
	<g>
		<path class="st1" d="M1786.21,934.25c-1.2-1.12-1.8-2.56-1.8-4.32V804.89c0-1.76,0.6-3.2,1.8-4.32c1.2-1.12,2.68-1.68,4.44-1.68
			h54.48c21.76,0,37.96,4.6,48.6,13.8c10.64,9.2,15.96,24.2,15.96,45v72c0,1.76-0.6,3.24-1.8,4.44c-1.2,1.2-2.68,1.8-4.44,1.8
			h-112.8C1788.89,935.93,1787.41,935.37,1786.21,934.25z M1871.05,903.29v-44.4c0-18.24-9.04-27.36-27.12-27.36h-23.04v71.76
			H1871.05z"/>
	</g>
	<g>
		<path class="st1" d="M1441.02,934.97c-1.2,1.2-2.68,1.8-4.44,1.8h-77.04c-1.76,0-3.24-0.56-4.44-1.68s-1.8-2.56-1.8-4.32v-20.64
			c0-1.76,0.6-3.2,1.8-4.32c1.2-1.12,2.68-1.68,4.44-1.68h39.84l-2.16-47.28c-0.48-9.28-2.08-16-4.8-20.16
			c-2.72-4.16-7.68-6.24-14.88-6.24h-12.24c-1.6,0-3-0.6-4.2-1.8c-1.2-1.2-1.8-2.6-1.8-4.2v-20.16c0-1.76,0.56-3.24,1.68-4.44
			s2.56-1.8,4.32-1.8h12.96c20.96,0,36.2,4.72,45.72,14.16c9.52,9.44,14.68,24.56,15.48,45.36l3.12,73.2
			C1442.74,932.37,1442.22,933.77,1441.02,934.97z"/>
	</g>
	<g>
		<path class="st1" d="M451.48,921.41c-10.88-10.48-16.32-25.32-16.32-44.52v-73.2c0-1.76,0.6-3.2,1.8-4.32
			c1.2-1.12,2.68-1.68,4.44-1.68h61.2c22.88,0,39.36,4.88,49.44,14.64c10.08,9.76,15.6,24.16,16.56,43.2
			c0.16,1.6,0.24,5.36,0.24,11.28c0,6.08-0.08,9.92-0.24,11.52c-0.96,19.2-6.68,33.8-17.16,43.8s-27.48,15-51,15
			C478.68,937.13,462.36,931.89,451.48,921.41z M522.88,896.93c4.24-3.92,6.52-10.52,6.84-19.8c0.16-1.6,0.24-5.04,0.24-10.32
			c0-5.12-0.08-8.48-0.24-10.08c-0.32-8.96-2.72-15.6-7.2-19.92c-4.48-4.32-11.52-6.48-21.12-6.48h-29.04v45.84
			c0,8.96,2.4,15.64,7.2,20.04c4.8,4.4,11.68,6.6,20.64,6.6C511.08,902.81,518.64,900.85,522.88,896.93z"/>
	</g>
	<g>
		<path class="st1" d="M930.35,949.13c-1.2-1.12-1.8-2.56-1.8-4.32v-154.8c0-1.76,0.6-3.2,1.8-4.32s2.68-1.68,4.44-1.68h28.32
			c1.76,0,3.2,0.56,4.32,1.68s1.68,2.56,1.68,4.32v154.8c0,1.76-0.56,3.2-1.68,4.32s-2.56,1.68-4.32,1.68h-28.32
			C933.03,950.81,931.55,950.25,930.35,949.13z"/>
	</g>
</g>
</svg>
