<?xml version="1.0" encoding="utf-8"?>
<!-- Generator: Adobe Illustrator 28.2.0, SVG Export Plug-In . SVG Version: 6.00 Build 0)  -->
<svg version="1.1" id="Layer_1" xmlns="http://www.w3.org/2000/svg" xmlns:xlink="http://www.w3.org/1999/xlink" x="0px" y="0px"
	 viewBox="0 0 4600 419.29" style="enable-background:new 0 0 4600 419.29;" xml:space="preserve">
<style type="text/css">
	.st0{fill:#3FB2FF;}
	.st1{fill:#FFE7CA;}
</style>
<g>
	<path class="st0" d="M3407.55,327.09h-209.57c-8.4,0-15.21-6.81-15.21-15.21V102.3c0-8.4,6.81-15.21,15.21-15.21h209.57
		c8.4,0,15.21,6.81,15.21,15.21v209.57C3422.76,320.28,3415.95,327.09,3407.55,327.09z"/>
	<path class="st0" d="M2269.73,327.09h-209.57c-8.4,0-15.21-6.81-15.21-15.21V102.3c0-8.4,6.81-15.21,15.21-15.21h209.57
		c8.4,0,15.21,6.81,15.21,15.21v209.57C2284.94,320.28,2278.13,327.09,2269.73,327.09z"/>
	<path class="st0" d="M1985.27,327.09H1775.7c-8.4,0-15.21-6.81-15.21-15.21V102.3c0-8.4,6.81-15.21,15.21-15.21h209.57
		c8.4,0,15.21,6.81,15.21,15.21v209.57C2000.49,320.28,1993.68,327.09,1985.27,327.09z"/>
	<path class="st0" d="M3123.09,327.09h-209.57c-8.4,0-15.21-6.81-15.21-15.21V102.3c0-8.4,6.81-15.21,15.21-15.21h209.57
		c8.4,0,15.21,6.81,15.21,15.21v209.57C3138.31,320.28,3131.49,327.09,3123.09,327.09z"/>
	<path class="st0" d="M2554.18,327.09h-209.57c-8.4,0-15.21-6.81-15.21-15.21V102.3c0-8.4,6.81-15.21,15.21-15.21h209.57
		c8.4,0,15.21,6.81,15.21,15.21v209.57C2569.4,320.28,2562.59,327.09,2554.18,327.09z"/>
	<path class="st0" d="M2838.64,327.09h-209.57c-8.4,0-15.21-6.81-15.21-15.21V102.3c0-8.4,6.81-15.21,15.21-15.21h209.57
		c8.4,0,15.21,6.81,15.21,15.21v209.57C2853.85,320.28,2847.04,327.09,2838.64,327.09z"/>
	<path class="st0" d="M1700.82,327.09h-209.57c-8.4,0-15.21-6.81-15.21-15.21V102.3c0-8.4,6.81-15.21,15.21-15.21h209.57
		c8.4,0,15.21,6.81,15.21,15.21v209.57C1716.03,320.28,1709.22,327.09,1700.82,327.09z"/>
	<path class="st0" d="M1416.37,327.09H1206.8c-8.4,0-15.21-6.81-15.21-15.21V102.3c0-8.4,6.81-15.21,15.21-15.21h209.57
		c8.4,0,15.21,6.81,15.21,15.21v209.57C1431.58,320.28,1424.77,327.09,1416.37,327.09z"/>
</g>
<g>
	<circle class="st1" cx="3302.76" cy="183.09" r="18"/>
	<circle class="st1" cx="3302.76" cy="231.09" r="18"/>
</g>
<g>
	<path class="st1" d="M2211.61,185.88c-7.03,7.03-18.43,7.03-25.46,0s-7.03-18.43,0-25.46c7.03-7.03,18.43-7.03,25.46,0
		C2218.64,167.45,2218.64,178.85,2211.61,185.88z"/>
	<circle class="st1" cx="2164.94" cy="207.09" r="18"/>
	<path class="st1" d="M2143.73,253.76c-7.03,7.03-18.43,7.03-25.46,0s-7.03-18.43,0-25.46c7.03-7.03,18.43-7.03,25.46,0
		C2150.76,235.33,2150.76,246.73,2143.73,253.76z"/>
</g>
<g>
	<circle class="st1" cx="1856.49" cy="183.09" r="18"/>
	<circle class="st1" cx="1904.49" cy="183.09" r="18"/>
	<circle class="st1" cx="1880.49" cy="231.09" r="18"/>
</g>
<g>
	<circle class="st1" cx="3060.06" cy="231.21" r="18"/>
	<circle class="st1" cx="3060.06" cy="182.96" r="18"/>
	<rect x="2958.56" y="176.96" class="st1" width="72" height="12"/>
</g>
<rect x="2413.4" y="201.09" class="st1" width="72" height="12"/>
<circle class="st1" cx="2733.85" cy="207.09" r="18"/>
<g>
	<rect x="1560.03" y="171.09" class="st1" width="72" height="12"/>
	<rect x="1590.03" y="171.08" class="st1" width="12" height="72"/>
</g>
<g>
	<circle class="st1" cx="1287.45" cy="207.09" r="18"/>
	<circle class="st1" cx="1335.7" cy="207.09" r="18"/>
</g>
</svg>
